<?xml version="1.0" encoding="utf-8"?><svg width="111" height="109" viewBox="0 0 111 109" xmlns="http://www.w3.org/2000/svg" xmlns:xlink="http://www.w3.org/1999/xlink"><svg width="57" height="56" fill="none" viewBox="-10 -10 57 56" id="cart" xmlns="http://www.w3.org/2000/svg"><path d="M17.873 32.485c0 1.786-1.376 3.234-3.073 3.234s-3.073-1.448-3.073-3.234 1.376-3.233 3.073-3.233 3.073 1.447 3.073 3.233zm9.369-3.233c-1.697 0-3.073 1.447-3.073 3.233s1.376 3.234 3.073 3.234 3.073-1.448 3.073-3.234-1.376-3.233-3.073-3.233zm9.538-15.18L33 25.898s-.314 1.755-1.909 1.755H12c-1.903 0-1.983-2.2-1.983-2.2S7.988 9.615 7.887 8.658c-.1-.957-1.263-1.666-1.263-1.666L1.62 4.532C-1.119 3.025.126.157 1.62.815c6.345 3.15 9.292 4.7 9.482 5.941.191 1.243.525 4.236.525 4.236v.02a1.81 1.81 0 01.066-.02h23.385c2.824 0 1.702 3.085 1.702 3.08zm-5.47 6.585l-.038.002h-18.51l.382 3.183H30.41l.9-3.185zm1.803-6.42H11.997l.407 3.403h19.754l.955-3.402z" fill="#fff"/></svg><svg width="54" height="54" fill="none" viewBox="-10 -10 54 54" id="phone" x="57" xmlns="http://www.w3.org/2000/svg"><path d="M27.049 25.039a29.373 29.373 0 00-1.104-1.112 43.494 43.494 0 01-.552-.546l-1.604-1.605c-.683-.685-1.485-1.047-2.307-1.047-.828 0-1.623.362-2.306 1.047-.164.164-.335.329-.5.493-.38.375-.775.763-1.156 1.171-.677-.329-1.367-.783-2.169-1.415a22.677 22.677 0 01-2.734-2.618 1.178 1.178 0 00-1.669-.112 1.18 1.18 0 00-.112 1.671 24.177 24.177 0 003.03 2.908c.006 0 .006.007.013.007 1.163.921 2.142 1.526 3.187 1.954.027.013.053.02.08.026.249.086.998.336 1.734-.394l.046-.046c.447-.507.92-.968 1.42-1.461.17-.165.341-.336.512-.507.158-.158.401-.355.638-.355.236 0 .473.19.637.355l1.604 1.606c.19.19.387.381.571.566.368.355.71.697 1.039 1.046.006.013.02.02.026.026.25.25.519.645-.013 1.21l-2.005 2.007c-.427.428-.9.652-1.498.704-1.019.086-2.103-.112-3.516-.638-2.353-.869-4.547-2.19-6.92-4.165-2.865-2.401-5.12-5.283-6.71-8.566-.565-1.191-1.228-2.77-1.34-4.448-.06-.934.19-1.605.795-2.171.44-.368.828-.77 1.196-1.151.237-.25.46-.48.697-.698l.006-.006c.467-.448.855-.454 1.288-.02l3.24 3.243.02.02c.138.132.302.336.309.56 0 .236-.178.467-.322.618l-2.011 2.013c-.46.46-.46 1.21 0 1.678.46.46 1.209.46 1.676 0l2.01-2.013c.677-.678 1.026-1.474 1.02-2.316-.007-.823-.362-1.599-1.026-2.237L9.036 7.084c-1.354-1.356-3.194-1.362-4.594-.02-.276.257-.526.52-.775.776-.349.362-.677.704-1.032 1-.013.014-.026.027-.046.04-1.15 1.046-1.676 2.414-1.577 4.072.138 2.08.907 3.935 1.564 5.317v.006c1.741 3.593 4.199 6.738 7.32 9.356 2.583 2.145 5.002 3.6 7.61 4.566.96.356 2.36.803 3.91.803.204 0 .415-.007.625-.026h.007a4.658 4.658 0 002.97-1.389l2.01-2.013c.008-.006.014-.013.02-.02 1.295-1.348 1.289-3.204 0-4.513zM26.582 16.992a11.699 11.699 0 00-3.266-6.316 11.582 11.582 0 00-6.296-3.263 1.184 1.184 0 00-.4 2.335 9.27 9.27 0 015.027 2.613 9.288 9.288 0 012.609 5.033c.098.579.598.987 1.163.987a1.185 1.185 0 001.163-1.388zM32.983 16.703c-.664-3.921-2.517-7.494-5.35-10.33-2.832-2.836-6.4-4.69-10.317-5.355a1.184 1.184 0 00-.401 2.335 16.687 16.687 0 019.043 4.691c2.484 2.487 4.107 5.62 4.685 9.054.099.579.598.986 1.163.986.066 0 .132-.006.197-.02a1.175 1.175 0 00.98-1.361z" fill="#fff" stroke="#fff"/></svg><svg width="54" height="53" fill="none" viewBox="-10 -10 54 53" id="search" y="56" xmlns="http://www.w3.org/2000/svg"><path d="M33.483 30.058l-8.381-8.169c2.154-2.4 3.335-5.42 3.335-8.565C28.437 5.977 22.06 0 14.22 0S0 5.977 0 13.324c0 7.346 6.379 13.324 14.219 13.324 2.943 0 5.748-.832 8.146-2.412l8.445 8.231c.353.344.828.533 1.337.533.481 0 .938-.172 1.285-.485.737-.664.76-1.766.051-2.457zM14.22 3.476c5.795 0 10.51 4.417 10.51 9.848 0 5.43-4.715 9.848-10.51 9.848s-10.51-4.418-10.51-9.848c0-5.43 4.715-9.848 10.51-9.848z" fill="#fff"/></svg><svg width="50" height="50" fill="none" viewBox="-10 -10 50 50" id="wallclock_" x="54" y="56" xmlns="http://www.w3.org/2000/svg"><g clip-path="url(#dclip0_2_24)" fill="#fff"><path d="M25.607 4.393A14.902 14.902 0 0015 0C10.993 0 7.227 1.56 4.393 4.393A14.902 14.902 0 000 15c0 4.007 1.56 7.773 4.393 10.607A14.902 14.902 0 0015 30c2.743 0 5.427-.747 7.761-2.162a1.172 1.172 0 10-1.214-2.004A12.633 12.633 0 0115 27.656C8.021 27.656 2.344 21.98 2.344 15 2.344 8.021 8.02 2.344 15 2.344c6.979 0 12.656 5.677 12.656 12.656 0 2.495-.742 4.924-2.146 7.024a1.172 1.172 0 001.949 1.303A14.941 14.941 0 0030 15c0-4.007-1.56-7.773-4.393-10.607z"/><path d="M15 4.453c-.647 0-1.172.525-1.172 1.172v8.89l-4.297 4.297a1.172 1.172 0 101.657 1.657l4.64-4.64c.22-.22.344-.518.344-.829V5.625c0-.647-.525-1.172-1.172-1.172z"/></g><defs><clipPath id="dclip0_2_24"><path fill="#fff" d="M0 0h30v30H0z"/></clipPath></defs></svg></svg>