<!-- Generated by IcoMoon.io -->
<svg version="1.1" xmlns="http://www.w3.org/2000/svg" width="30" height="30" viewBox="0 0 30 30">
<title>phone</title>
<path fill="#fff" d="M30 27.525v0.975c0 0.828-0.672 1.5-1.5 1.5v0h-3c-14.083 0-25.5-11.417-25.5-25.5v0-3c0-0.828 0.672-1.5 1.5-1.5v0h6c0.828 0 1.5 0.672 1.5 1.5v0 6c0 0.84-0.465 1.965-1.050 2.55l-3.21 3.21c2.28 5.4 6.6 9.72 12 12l3.18-3.18c0.6-0.6 1.725-1.065 2.55-1.065h6.030c0.822 0.008 1.485 0.677 1.485 1.5 0 0 0 0 0 0v0 5.025z"></path>
</svg>
