<!-- Generated by IcoMoon.io -->
<svg version="1.1" xmlns="http://www.w3.org/2000/svg" width="30" height="30" viewBox="0 0 30 30">
<title>shopping-cart</title>
<path fill="#fff" d="M6 3h24l-4.5 13.5h-19.5c-0.828 0-1.5 0.672-1.5 1.5s0.672 1.5 1.5 1.5v0h19.5v3h-19.5c-2.485 0-4.5-2.015-4.5-4.5s2.015-4.5 4.5-4.5v0h0.495l-1.995-6-1.5-4.5h-3v-3h4.5c0.828 0 1.5 0.672 1.5 1.5v0 1.5zM7.5 30c-1.657 0-3-1.343-3-3s1.343-3 3-3v0c1.657 0 3 1.343 3 3s-1.343 3-3 3v0zM22.5 30c-1.657 0-3-1.343-3-3s1.343-3 3-3v0c1.657 0 3 1.343 3 3s-1.343 3-3 3v0z"></path>
</svg>
