<?xml version="1.0" encoding="utf-8"?><svg width="150" height="150" viewBox="0 0 150 150" xmlns="http://www.w3.org/2000/svg" xmlns:xlink="http://www.w3.org/1999/xlink"><svg width="50" height="50" viewBox="-10 -10 50 50" id="ch-bottom" xmlns="http://www.w3.org/2000/svg"><path fill="#fff" d="M13.94 19.425l1.06 1.06L23.485 12l-2.121-2.121-6.365 6.363-6.365-6.363L6.513 12z"/></svg><svg width="50" height="50" viewBox="-10 -10 50 50" id="ch-left" x="50" xmlns="http://www.w3.org/2000/svg"><path fill="#fff" d="M10.575 13.94L9.515 15 18 23.485l2.121-2.121-6.363-6.365 6.363-6.365L18 6.513z"/></svg><svg width="50" height="50" viewBox="-10 -10 50 50" id="ch-right" y="50" xmlns="http://www.w3.org/2000/svg"><path fill="#fff" d="M19.425 16.06l1.06-1.06L12 6.515 9.879 8.636l6.363 6.365-6.363 6.365L12 23.487l7.425-7.425z"/></svg><svg width="50" height="50" viewBox="-10 -10 50 50" id="ch-top" x="50" y="50" xmlns="http://www.w3.org/2000/svg"><path fill="#fff" d="M16.06 10.575L15 9.515 6.515 18l2.121 2.121 6.365-6.363 6.365 6.363L23.487 18z"/></svg><svg width="50" height="50" viewBox="-10 -10 50 50" id="envelope" x="100" xmlns="http://www.w3.org/2000/svg"><path fill="#fff" d="M27 3a3 3 0 013 3v18a3 3 0 01-3 3H3a3 3 0 01-3-3V6c0-1.65 1.35-3 3-3h24zm-6.555 13.65L30 24v-3l-7.68-5.85L30 9V6L15 18 0 6v3l7.68 6.15L0 21v3l9.555-7.35L15 21l5.445-4.35z"/></svg><svg width="50" height="50" viewBox="-10 -10 50 50" id="menu" x="100" y="50" xmlns="http://www.w3.org/2000/svg"><path fill="#fff" d="M0 4.5h30v3H0v-3zm0 9h30v3H0v-3zm0 9h30v3H0v-3z"/></svg><svg width="50" height="50" viewBox="-10 -10 50 50" id="phone" y="100" xmlns="http://www.w3.org/2000/svg"><path fill="#fff" d="M30 27.525v.975a1.5 1.5 0 01-1.5 1.5h-3C11.417 30 0 18.583 0 4.5v-3A1.5 1.5 0 011.5 0h6A1.5 1.5 0 019 1.5v6c0 .84-.465 1.965-1.05 2.55l-3.21 3.21c2.28 5.4 6.6 9.72 12 12l3.18-3.18c.6-.6 1.725-1.065 2.55-1.065h6.03a1.5 1.5 0 011.485 1.5v5.025z"/></svg><svg width="50" height="50" viewBox="-10 -10 50 50" id="search" x="50" y="100" xmlns="http://www.w3.org/2000/svg"><path fill="#fff" d="M19.35 21.48a11.918 11.918 0 01-7.362 2.523c-6.627 0-12-5.373-12-12s5.373-12 12-12 12 5.373 12 12c0 2.787-.95 5.351-2.543 7.388l.02-.026 8.025 7.995-2.13 2.13-7.995-8.01zM12 21c4.971 0 9-4.029 9-9s-4.029-9-9-9-9 4.029-9 9 4.029 9 9 9z"/></svg><svg width="50" height="50" viewBox="-10 -10 50 50" id="shopping-cart" x="100" y="100" xmlns="http://www.w3.org/2000/svg"><path fill="#fff" d="M6 3h24l-4.5 13.5H6a1.5 1.5 0 000 3h19.5v3H6a4.5 4.5 0 010-9h.495L4.5 7.5 3 3H0V0h4.5A1.5 1.5 0 016 1.5V3zm1.5 27a3 3 0 110-6 3 3 0 110 6zm15 0a3 3 0 110-6 3 3 0 110 6z"/></svg></svg>